<svg width="863" height="176" viewBox="0 0 863 176" fill="none" xmlns="http://www.w3.org/2000/svg">
<path d="M33.3267 4.1635C45.0799 4.1635 54.7784 8.28152 62.4221 16.5176C70.1481 24.6729 74.011 34.6852 74.011 46.5548C74.011 58.4244 70.1481 68.4772 62.4221 76.7133C54.7784 84.8687 45.0799 88.9462 33.3267 88.9462H0.0395508V4.1635H33.3267ZM33.3267 80.9524C42.7787 80.9524 50.5045 77.6419 56.5044 71.0207C62.5865 64.3997 65.6276 56.2443 65.6276 46.5548C65.6276 36.8654 62.5865 28.7101 56.5044 22.0889C50.5045 15.4679 42.7787 12.1573 33.3267 12.1573H8.66955V80.9524H33.3267Z" fill="black"/>
<path d="M146.715 28.3871H154.852V88.9462H146.715V77.0766C141.044 85.9588 132.743 90.3997 121.811 90.3997C113.017 90.3997 105.496 87.3314 99.2498 81.1947C93.0856 75.0581 90.0034 67.5488 90.0034 58.6667C90.0034 49.7847 93.0856 42.2754 99.2498 36.1387C105.496 30.0021 113.017 26.9337 121.811 26.9337C132.743 26.9337 141.044 31.3747 146.715 40.2567V28.3871ZM105.168 75.7443C109.852 80.3468 115.606 82.6481 122.428 82.6481C129.249 82.6481 135.003 80.3468 139.688 75.7443C144.372 71.0612 146.715 65.3687 146.715 58.6667C146.715 51.9649 144.372 46.3126 139.688 41.7101C135.003 37.027 129.249 34.6852 122.428 34.6852C115.606 34.6852 109.852 37.027 105.168 41.7101C100.483 46.3126 98.1403 51.9649 98.1403 58.6667C98.1403 65.3687 100.483 71.0612 105.168 75.7443Z" fill="black"/>
<path d="M210.915 36.1387H193.162V72.8375C193.162 76.1482 193.819 78.5301 195.134 79.9835C196.45 81.3563 198.423 82.083 201.052 82.1636C203.681 82.1636 206.97 82.083 210.915 81.9214V88.9462C202.285 90.2382 195.791 89.6326 191.436 87.1295C187.162 84.6265 185.025 79.8624 185.025 72.8375V36.1387H172.08V28.3871H185.025V13.853L193.162 11.4306V28.3871H210.915V36.1387Z" fill="black"/>
<path d="M279.92 28.3871H288.057V88.9462H279.92V77.0766C274.251 85.9588 265.948 90.3997 255.016 90.3997C246.223 90.3997 238.702 87.3314 232.455 81.1947C226.291 75.0581 223.209 67.5488 223.209 58.6667C223.209 49.7847 226.291 42.2754 232.455 36.1387C238.702 30.0021 246.223 26.9337 255.016 26.9337C265.948 26.9337 274.251 31.3747 279.92 40.2567V28.3871ZM238.373 75.7443C243.058 80.3468 248.812 82.6481 255.633 82.6481C262.456 82.6481 268.208 80.3468 272.893 75.7443C277.578 71.0612 279.92 65.3687 279.92 58.6667C279.92 51.9649 277.578 46.3126 272.893 41.7101C268.208 37.027 262.456 34.6852 255.633 34.6852C248.812 34.6852 243.058 37.027 238.373 41.7101C233.688 46.3126 231.346 51.9649 231.346 58.6667C231.346 65.3687 233.688 71.0612 238.373 75.7443Z" fill="black"/>
<path d="M345.108 4.1635C356.943 4.1635 366.806 8.24113 374.696 16.3964C382.669 24.5518 386.655 34.6046 386.655 46.5548C386.655 58.5052 382.669 68.5581 374.696 76.7133C366.806 84.8687 356.943 88.9462 345.108 88.9462H310.834V4.1635H345.108ZM345.108 72.9586C352.587 72.9586 358.669 70.5363 363.354 65.6915C368.039 60.7662 370.381 54.3872 370.381 46.5548C370.381 38.7227 368.039 32.384 363.354 27.5393C358.669 22.6139 352.587 20.1511 345.108 20.1511H327.848V72.9586H345.108Z" fill="black"/>
<path d="M412.038 21.12C409.409 21.12 407.107 20.1916 405.134 18.3343C403.245 16.3964 402.299 14.1356 402.299 11.5517C402.299 8.96786 403.245 6.70698 405.134 4.76909C407.107 2.8312 409.409 1.86225 412.038 1.86225C414.751 1.86225 417.053 2.8312 418.942 4.76909C420.915 6.70698 421.901 8.96786 421.901 11.5517C421.901 14.1356 420.915 16.3964 418.942 18.3343C417.053 20.1916 414.751 21.12 412.038 21.12ZM404.148 88.9462V28.3871H420.052V88.9462H404.148Z" fill="black"/>
<path d="M487.62 28.3871H503.524V88.9462H487.62V81.8003C482.854 87.6947 476.154 90.6419 467.524 90.6419C459.307 90.6419 452.237 87.5736 446.319 81.4369C440.484 75.2196 437.566 67.6294 437.566 58.6667C437.566 49.7039 440.484 42.1543 446.319 36.0175C452.237 29.8002 459.307 26.6914 467.524 26.6914C476.154 26.6914 482.854 29.6388 487.62 35.5331V28.3871ZM458.278 71.0207C461.483 74.1698 465.552 75.7443 470.483 75.7443C475.415 75.7443 479.483 74.1698 482.689 71.0207C485.977 67.791 487.62 63.673 487.62 58.6667C487.62 53.6605 485.977 49.5828 482.689 46.4337C479.483 43.204 475.415 41.589 470.483 41.589C465.552 41.589 461.483 43.204 458.278 46.4337C455.073 49.5828 453.47 53.6605 453.47 58.6667C453.47 63.673 455.073 67.791 458.278 71.0207Z" fill="black"/>
<path d="M524.111 88.9462V0.529947H540.014V88.9462H524.111Z" fill="black"/>
<path d="M613.256 81.4369C606.926 87.5736 599.199 90.6419 590.076 90.6419C580.953 90.6419 573.228 87.5736 566.898 81.4369C560.653 75.2196 557.529 67.6294 557.529 58.6667C557.529 49.7039 560.653 42.1543 566.898 36.0175C573.228 29.8002 580.953 26.6914 590.076 26.6914C599.199 26.6914 606.926 29.8002 613.256 36.0175C619.584 42.1543 622.747 49.7039 622.747 58.6667C622.747 67.6294 619.584 75.2196 613.256 81.4369ZM578.118 70.6574C581.323 73.8064 585.31 75.381 590.076 75.381C594.844 75.381 598.831 73.8064 602.037 70.6574C605.242 67.5083 606.845 63.5114 606.845 58.6667C606.845 53.8219 605.242 49.825 602.037 46.676C598.831 43.5269 594.844 41.9523 590.076 41.9523C585.31 41.9523 581.323 43.5269 578.118 46.676C574.995 49.825 573.433 53.8219 573.433 58.6667C573.433 63.5114 574.995 67.5083 578.118 70.6574Z" fill="black"/>
<path d="M687.318 28.3871H702.852V86.0394C702.852 95.406 699.689 102.552 693.359 107.477C687.114 112.403 679.551 114.866 670.674 114.866C664.017 114.866 658.142 113.614 653.044 111.111C648.032 108.608 644.168 104.934 641.456 100.089L655.017 92.4587C658.142 98.1109 663.524 100.937 671.167 100.937C676.182 100.937 680.127 99.6451 683.003 97.0612C685.881 94.4774 687.318 90.8035 687.318 86.0394V79.499C682.633 85.6357 676.058 88.704 667.592 88.704C658.881 88.704 651.565 85.7165 645.647 79.7413C639.812 73.6853 636.894 66.3376 636.894 57.6977C636.894 49.1388 639.853 41.8312 645.771 35.7753C651.688 29.7194 658.962 26.6914 667.592 26.6914C676.058 26.6914 682.633 29.7599 687.318 35.8964V28.3871ZM657.606 69.6884C660.894 72.7569 665.046 74.2909 670.058 74.2909C675.072 74.2909 679.181 72.7569 682.386 69.6884C685.675 66.5394 687.318 62.5425 687.318 57.6977C687.318 52.9338 685.675 49.0177 682.386 45.9492C679.181 42.8002 675.072 41.2256 670.058 41.2256C665.046 41.2256 660.894 42.8002 657.606 45.9492C654.401 49.0177 652.798 52.9338 652.798 57.6977C652.798 62.5425 654.401 66.5394 657.606 69.6884Z" fill="black"/>
<path d="M764.123 28.3871H780.027V88.9462H764.123V82.1636C760.261 87.8159 754.137 90.6419 745.753 90.6419C739.013 90.6419 733.425 88.4215 728.987 83.9804C724.631 79.5395 722.452 73.4028 722.452 65.5704V28.3871H738.356V63.6325C738.356 67.6699 739.466 70.7785 741.685 72.9586C743.904 75.0581 746.863 76.1077 750.562 76.1077C754.67 76.1077 757.959 74.8562 760.424 72.353C762.89 69.85 764.123 66.0954 764.123 61.089V28.3871Z" fill="black"/>
<path d="M814.194 65.0859C816.332 72.6761 822.127 76.4711 831.577 76.4711C837.661 76.4711 842.263 74.4525 845.385 70.4151L858.207 77.6822C852.126 86.3221 843.166 90.6419 831.331 90.6419C821.141 90.6419 812.961 87.6139 806.797 81.558C800.633 75.5021 797.551 67.8717 797.551 58.6667C797.551 49.5425 800.592 41.9523 806.674 35.8964C812.757 29.7599 820.565 26.6914 830.098 26.6914C839.14 26.6914 846.578 29.7599 852.413 35.8964C858.33 42.0332 861.289 49.6233 861.289 58.6667C861.289 60.6854 861.085 62.8252 860.673 65.0859H814.194ZM813.948 52.9741H845.385C844.482 48.8561 842.592 45.7878 839.714 43.7691C836.921 41.7506 833.716 40.7412 830.098 40.7412C825.825 40.7412 822.291 41.8312 819.495 44.0114C816.702 46.1109 814.853 49.0983 813.948 52.9741Z" fill="black"/>
<path d="M451.074 132.715C455.333 132.715 458.956 134.202 461.942 137.174C464.968 140.147 466.48 143.784 466.48 148.086C466.48 152.388 464.968 156.026 461.942 158.998C458.956 161.971 455.333 163.457 451.074 163.457C445.778 163.457 441.758 161.306 439.011 157.003V162.753H435.07V121.686H439.011V139.169C441.758 134.867 445.778 132.715 451.074 132.715ZM442.415 156.358C444.684 158.587 447.471 159.702 450.775 159.702C454.079 159.702 456.866 158.587 459.135 156.358C461.405 154.09 462.539 151.332 462.539 148.086C462.539 144.84 461.405 142.102 459.135 139.873C456.866 137.604 454.079 136.47 450.775 136.47C447.471 136.47 444.684 137.604 442.415 139.873C440.145 142.102 439.011 144.84 439.011 148.086C439.011 151.332 440.145 154.09 442.415 156.358Z" fill="black"/>
<path d="M496.352 133.419H500.532L487.753 165.451C486.597 168.346 484.946 170.614 482.797 172.257C480.685 173.939 478.318 174.682 475.69 174.486V170.849C479.273 171.24 481.999 169.206 483.871 164.747L484.648 162.929L471.271 133.419H475.451L486.678 158.001L496.352 133.419Z" fill="black"/>
<path d="M529.36 129.899C528.087 129.899 526.971 129.45 526.016 128.55C525.101 127.611 524.642 126.516 524.642 125.265C524.642 124.013 525.101 122.918 526.016 121.979C526.971 121.041 528.087 120.571 529.36 120.571C530.674 120.571 531.789 121.041 532.704 121.979C533.66 122.918 534.137 124.013 534.137 125.265C534.137 126.516 533.66 127.611 532.704 128.55C531.789 129.45 530.674 129.899 529.36 129.899ZM525.538 162.753V133.419H533.242V162.753H525.538Z" fill="black"/>
<path d="M559.879 132.598C563.144 132.598 565.831 133.674 567.941 135.825C570.091 137.976 571.165 140.948 571.165 144.742V162.753H563.462V145.681C563.462 143.725 562.925 142.239 561.85 141.222C560.775 140.166 559.342 139.638 557.55 139.638C555.56 139.638 553.967 140.244 552.773 141.457C551.578 142.669 550.981 144.488 550.981 146.913V162.753H543.278V133.419H550.981V136.705C552.854 133.967 555.818 132.598 559.879 132.598Z" fill="black"/>
<path d="M597.809 140.694H591.061V152.897C591.061 153.914 591.319 154.657 591.837 155.126C592.355 155.595 593.11 155.869 594.106 155.947C595.102 155.987 596.335 155.967 597.809 155.889V162.753C592.513 163.339 588.772 162.851 586.582 161.286C584.432 159.722 583.357 156.925 583.357 152.897V140.694H578.162V133.419H583.357V127.494L591.061 125.206V133.419H597.809V140.694Z" fill="black"/>
<path d="M611.801 151.195C612.838 154.872 615.645 156.71 620.222 156.71C623.169 156.71 625.398 155.732 626.91 153.777L633.12 157.297C630.175 161.482 625.835 163.574 620.102 163.574C615.167 163.574 611.204 162.107 608.219 159.174C605.233 156.241 603.74 152.545 603.74 148.086C603.74 143.667 605.213 139.99 608.159 137.057C611.106 134.084 614.887 132.598 619.505 132.598C623.885 132.598 627.488 134.084 630.314 137.057C633.18 140.029 634.613 143.706 634.613 148.086C634.613 149.064 634.515 150.1 634.315 151.195H611.801ZM611.682 145.329H626.91C626.473 143.334 625.558 141.848 624.163 140.87C622.811 139.892 621.258 139.403 619.505 139.403C617.436 139.403 615.724 139.931 614.369 140.987C613.017 142.004 612.121 143.451 611.682 145.329Z" fill="black"/>
<path d="M665.616 133.419H673.14V161.345C673.14 165.882 671.607 169.343 668.542 171.729C665.516 174.115 661.854 175.307 657.554 175.307C654.329 175.307 651.482 174.701 649.014 173.489C646.585 172.276 644.715 170.497 643.401 168.15L649.97 164.454C651.482 167.192 654.09 168.561 657.793 168.561C660.222 168.561 662.133 167.935 663.526 166.683C664.918 165.432 665.616 163.652 665.616 161.345V158.177C663.346 161.149 660.162 162.635 656.061 162.635C651.84 162.635 648.298 161.188 645.432 158.294C642.606 155.361 641.192 151.802 641.192 147.617C641.192 143.471 642.625 139.931 645.491 136.998C648.358 134.065 651.881 132.598 656.061 132.598C660.162 132.598 663.346 134.084 665.616 137.057V133.419ZM651.224 153.425C652.817 154.911 654.826 155.654 657.255 155.654C659.684 155.654 661.674 154.911 663.227 153.425C664.82 151.899 665.616 149.963 665.616 147.617C665.616 145.309 664.82 143.412 663.227 141.926C661.674 140.401 659.684 139.638 657.255 139.638C654.826 139.638 652.817 140.401 651.224 141.926C649.671 143.412 648.895 145.309 648.895 147.617C648.895 149.963 649.671 151.899 651.224 153.425Z" fill="black"/>
<path d="M690.814 138.465C691.531 136.587 692.706 135.179 694.337 134.241C696.009 133.302 697.861 132.833 699.891 132.833V141.281C697.543 141.007 695.432 141.476 693.561 142.689C691.729 143.901 690.814 145.915 690.814 148.731V162.753H683.111V133.419H690.814V138.465Z" fill="black"/>
<path d="M728.967 133.419H736.671V162.753H728.967V159.291C726.658 162.147 723.414 163.574 719.233 163.574C715.252 163.574 711.829 162.088 708.962 159.115C706.134 156.104 704.722 152.427 704.722 148.086C704.722 143.745 706.134 140.088 708.962 137.115C711.829 134.104 715.252 132.598 719.233 132.598C723.414 132.598 726.658 134.026 728.967 136.881V133.419ZM714.755 154.07C716.307 155.595 718.278 156.358 720.667 156.358C723.055 156.358 725.026 155.595 726.579 154.07C728.17 152.506 728.967 150.511 728.967 148.086C728.967 145.661 728.17 143.686 726.579 142.161C725.026 140.596 723.055 139.814 720.667 139.814C718.278 139.814 716.307 140.596 714.755 142.161C713.202 143.686 712.426 145.661 712.426 148.086C712.426 150.511 713.202 152.506 714.755 154.07Z" fill="black"/>
<path d="M763.72 140.694H756.972V152.897C756.972 153.914 757.231 154.657 757.749 155.126C758.267 155.595 759.022 155.869 760.018 155.947C761.014 155.987 762.247 155.967 763.72 155.889V162.753C758.425 163.339 754.684 162.851 752.494 161.286C750.344 159.722 749.269 156.925 749.269 152.897V140.694H744.074V133.419H749.269V127.494L756.972 125.206V133.419H763.72V140.694Z" fill="black"/>
<path d="M796.644 159.115C793.579 162.088 789.836 163.574 785.417 163.574C780.998 163.574 777.257 162.088 774.19 159.115C771.166 156.104 769.652 152.427 769.652 148.086C769.652 143.745 771.166 140.088 774.19 137.115C777.257 134.104 780.998 132.598 785.417 132.598C789.836 132.598 793.579 134.104 796.644 137.115C799.71 140.088 801.242 143.745 801.242 148.086C801.242 152.427 799.71 156.104 796.644 159.115ZM779.624 153.894C781.177 155.419 783.109 156.182 785.417 156.182C787.726 156.182 789.657 155.419 791.209 153.894C792.762 152.369 793.538 150.433 793.538 148.086C793.538 145.739 792.762 143.803 791.209 142.278C789.657 140.753 787.726 139.99 785.417 139.99C783.109 139.99 781.177 140.753 779.624 142.278C778.112 143.803 777.355 145.739 777.355 148.086C777.355 150.433 778.112 152.369 779.624 153.894Z" fill="black"/>
<path d="M817.35 138.465C818.066 136.587 819.241 135.179 820.873 134.241C822.545 133.302 824.396 132.833 826.427 132.833V141.281C824.078 141.007 821.969 141.476 820.097 142.689C818.267 143.901 817.35 145.915 817.35 148.731V162.753H809.646V133.419H817.35V138.465Z" fill="black"/>
<path d="M840.092 141.75C840.092 142.532 840.61 143.178 841.645 143.686C842.719 144.155 844.012 144.586 845.526 144.977C847.038 145.329 848.552 145.798 850.065 146.385C851.577 146.932 852.85 147.871 853.887 149.201C854.961 150.531 855.499 152.193 855.499 154.187C855.499 157.199 854.343 159.526 852.035 161.169C849.766 162.772 846.919 163.574 843.496 163.574C837.364 163.574 833.184 161.247 830.955 156.593L837.644 152.897C838.52 155.439 840.47 156.71 843.496 156.71C846.243 156.71 847.616 155.869 847.616 154.187C847.616 153.405 847.079 152.779 846.004 152.31C844.969 151.802 843.694 151.352 842.182 150.961C840.67 150.57 839.156 150.081 837.644 149.494C836.131 148.907 834.837 147.988 833.762 146.737C832.728 145.446 832.209 143.843 832.209 141.926C832.209 139.032 833.284 136.763 835.434 135.121C837.624 133.439 840.331 132.598 843.556 132.598C845.985 132.598 848.192 133.146 850.184 134.241C852.174 135.297 853.748 136.822 854.902 138.817L848.333 142.337C847.377 140.342 845.784 139.345 843.556 139.345C842.56 139.345 841.724 139.56 841.047 139.99C840.41 140.42 840.092 141.007 840.092 141.75Z" fill="black"/>
</svg>
