<svg width="311" height="311" viewBox="0 0 311 311" fill="none" xmlns="http://www.w3.org/2000/svg">
<path opacity="0.25" d="M119.734 34C148.334 34 172.034 44.2 190.834 64.6C209.834 84.8 219.334 109.6 219.334 139C219.334 168.4 209.834 193.3 190.834 213.7C172.034 233.9 148.334 244 119.734 244H37.834V34H119.734ZM119.734 217.6C141.134 217.6 158.634 210.1 172.234 195.1C185.834 180.1 192.634 161.4 192.634 139C192.634 116.6 185.834 97.9 172.234 82.9C158.634 67.9 141.134 60.4 119.734 60.4H65.734V217.6H119.734Z" fill="#353F4C"/>
<path d="M174.466 81C203.266 81 227.266 91.1 246.466 111.3C265.866 131.5 275.566 156.4 275.566 186C275.566 215.6 265.866 240.5 246.466 260.7C227.266 280.9 203.266 291 174.466 291H91.0664V81H174.466ZM174.466 251.4C192.666 251.4 207.466 245.4 218.866 233.4C230.266 221.2 235.966 205.4 235.966 186C235.966 166.6 230.266 150.9 218.866 138.9C207.466 126.7 192.666 120.6 174.466 120.6H132.466V251.4H174.466Z" fill="#1F242A"/>
</svg>
